  0
SECTION
  2
HEADER
  9
$ACADVER
  1
AC1009
  0
ENDSEC
  0
SECTION
  2
ENTITIES
  0
CIRCLE
  5
90
  8
Layer_0
  62
0
  10
603
  20
224.48083
  30
0
  40
1.6
  0
CIRCLE
  5
90
  8
Layer_0
  62
0
  10
603
  20
224.48083
  30
0
  40
1.6
  0
CIRCLE
  5
90
  8
Layer_0
  62
0
  10
603
  20
297.51917
  30
0
  40
1.6
  0
CIRCLE
  5
90
  8
Layer_0
  62
0
  10
603
  20
297.51917
  30
0
  40
1.6
  0
POLYLINE
  5
90
  8
Layer_0
  62
0
  66
1
  10
0
  20
0
  30
0
  0
VERTEX
  5
90
  8
Layer_0
  10
651
  20
243.76923
  0
VERTEX
  5
91
  8
Layer_0
  10
647.79999
  20
243.76923
  0
VERTEX
  5
92
  8
Layer_0
  10
647.79999
  20
250.66156
  0
VERTEX
  5
93
  8
Layer_0
  10
651
  20
250.66156
  0
VERTEX
  5
94
  8
Layer_0
  10
651
  20
257.55383
  0
VERTEX
  5
95
  8
Layer_0
  10
647.79999
  20
257.55383
  0
VERTEX
  5
96
  8
Layer_0
  10
647.79999
  20
264.44617
  0
VERTEX
  5
97
  8
Layer_0
  10
651
  20
264.44617
  0
VERTEX
  5
98
  8
Layer_0
  10
651
  20
271.33844
  0
VERTEX
  5
99
  8
Layer_0
  10
647.79999
  20
271.33844
  0
VERTEX
  5
9a
  8
Layer_0
  10
647.79999
  20
278.23077
  0
VERTEX
  5
9b
  8
Layer_0
  10
651
  20
278.23077
  0
VERTEX
  5
9c
  8
Layer_0
  10
651
  20
285.12305
  0
VERTEX
  5
9d
  8
Layer_0
  10
647.79999
  20
285.12305
  0
VERTEX
  5
9e
  8
Layer_0
  10
647.79999
  20
292.01538
  0
VERTEX
  5
9f
  8
Layer_0
  10
651
  20
292.01538
  0
VERTEX
  5
a0
  8
Layer_0
  10
651
  20
298.90771
  0
VERTEX
  5
a1
  8
Layer_0
  10
647.79999
  20
298.90771
  0
VERTEX
  5
a2
  8
Layer_0
  10
647.79999
  20
305.79999
  0
VERTEX
  5
a3
  8
Layer_0
  10
643.61536
  20
305.79999
  0
VERTEX
  5
a4
  8
Layer_0
  10
643.61536
  20
309
  0
VERTEX
  5
a5
  8
Layer_0
  10
636.23077
  20
309
  0
VERTEX
  5
a6
  8
Layer_0
  10
636.23077
  20
305.79999
  0
VERTEX
  5
a7
  8
Layer_0
  10
628.84613
  20
305.79999
  0
VERTEX
  5
a8
  8
Layer_0
  10
628.84613
  20
309
  0
VERTEX
  5
a9
  8
Layer_0
  10
621.46155
  20
309
  0
VERTEX
  5
aa
  8
Layer_0
  10
621.46155
  20
305.79999
  0
VERTEX
  5
ab
  8
Layer_0
  10
614.0769
  20
305.79999
  0
VERTEX
  5
ac
  8
Layer_0
  10
614.0769
  20
309
  0
VERTEX
  5
ad
  8
Layer_0
  10
606.69232
  20
309
  0
VERTEX
  5
ae
  8
Layer_0
  10
606.69232
  20
305.79999
  0
VERTEX
  5
af
  8
Layer_0
  10
599.30768
  20
305.79999
  0
VERTEX
  5
b0
  8
Layer_0
  10
599.30768
  20
309
  0
VERTEX
  5
b1
  8
Layer_0
  10
591.9231
  20
309
  0
VERTEX
  5
b2
  8
Layer_0
  10
591.9231
  20
305.79999
  0
VERTEX
  5
b3
  8
Layer_0
  10
584.53845
  20
305.79999
  0
VERTEX
  5
b4
  8
Layer_0
  10
584.53845
  20
309
  0
VERTEX
  5
b5
  8
Layer_0
  10
577.15381
  20
309
  0
VERTEX
  5
b6
  8
Layer_0
  10
577.15381
  20
305.79999
  0
VERTEX
  5
b7
  8
Layer_0
  10
569.76923
  20
305.79999
  0
VERTEX
  5
b8
  8
Layer_0
  10
569.76923
  20
309
  0
VERTEX
  5
b9
  8
Layer_0
  10
562.38464
  20
309
  0
VERTEX
  5
ba
  8
Layer_0
  10
562.38464
  20
305.79999
  0
VERTEX
  5
bb
  8
Layer_0
  10
558.20001
  20
305.79999
  0
VERTEX
  5
bc
  8
Layer_0
  10
558.20001
  20
298.90771
  0
VERTEX
  5
bd
  8
Layer_0
  10
555
  20
298.90771
  0
VERTEX
  5
be
  8
Layer_0
  10
555
  20
292.01538
  0
VERTEX
  5
bf
  8
Layer_0
  10
558.20001
  20
292.01538
  0
VERTEX
  5
c0
  8
Layer_0
  10
558.20001
  20
285.12305
  0
VERTEX
  5
c1
  8
Layer_0
  10
555
  20
285.12305
  0
VERTEX
  5
c2
  8
Layer_0
  10
555
  20
278.23077
  0
VERTEX
  5
c3
  8
Layer_0
  10
558.20001
  20
278.23077
  0
VERTEX
  5
c4
  8
Layer_0
  10
558.20001
  20
271.33844
  0
VERTEX
  5
c5
  8
Layer_0
  10
555
  20
271.33844
  0
VERTEX
  5
c6
  8
Layer_0
  10
555
  20
264.44617
  0
VERTEX
  5
c7
  8
Layer_0
  10
558.20001
  20
264.44617
  0
VERTEX
  5
c8
  8
Layer_0
  10
558.20001
  20
257.55383
  0
VERTEX
  5
c9
  8
Layer_0
  10
555
  20
257.55383
  0
VERTEX
  5
ca
  8
Layer_0
  10
555
  20
250.66156
  0
VERTEX
  5
cb
  8
Layer_0
  10
558.20001
  20
250.66156
  0
VERTEX
  5
cc
  8
Layer_0
  10
558.20001
  20
243.76923
  0
VERTEX
  5
cd
  8
Layer_0
  10
555
  20
243.76923
  0
VERTEX
  5
ce
  8
Layer_0
  10
555
  20
236.87695
  0
VERTEX
  5
cf
  8
Layer_0
  10
558.20001
  20
236.87695
  0
VERTEX
  5
d0
  8
Layer_0
  10
558.20001
  20
229.98462
  0
VERTEX
  5
d1
  8
Layer_0
  10
555
  20
229.98462
  0
VERTEX
  5
d2
  8
Layer_0
  10
555
  20
223.09229
  0
VERTEX
  5
d3
  8
Layer_0
  10
558.20001
  20
223.09229
  0
VERTEX
  5
d4
  8
Layer_0
  10
558.20001
  20
216.20001
  0
VERTEX
  5
d5
  8
Layer_0
  10
562.38464
  20
216.20001
  0
VERTEX
  5
d6
  8
Layer_0
  10
562.38464
  20
213
  0
VERTEX
  5
d7
  8
Layer_0
  10
569.76923
  20
213
  0
VERTEX
  5
d8
  8
Layer_0
  10
569.76923
  20
216.20001
  0
VERTEX
  5
d9
  8
Layer_0
  10
577.15381
  20
216.20001
  0
VERTEX
  5
da
  8
Layer_0
  10
577.15381
  20
213
  0
VERTEX
  5
db
  8
Layer_0
  10
584.53845
  20
213
  0
VERTEX
  5
dc
  8
Layer_0
  10
584.53845
  20
216.20001
  0
VERTEX
  5
dd
  8
Layer_0
  10
591.9231
  20
216.20001
  0
VERTEX
  5
de
  8
Layer_0
  10
591.9231
  20
213
  0
VERTEX
  5
df
  8
Layer_0
  10
599.30768
  20
213
  0
VERTEX
  5
e0
  8
Layer_0
  10
599.30768
  20
216.20001
  0
VERTEX
  5
e1
  8
Layer_0
  10
606.69232
  20
216.20001
  0
VERTEX
  5
e2
  8
Layer_0
  10
606.69232
  20
213
  0
VERTEX
  5
e3
  8
Layer_0
  10
614.0769
  20
213
  0
VERTEX
  5
e4
  8
Layer_0
  10
614.0769
  20
216.20001
  0
VERTEX
  5
e5
  8
Layer_0
  10
621.46155
  20
216.20001
  0
VERTEX
  5
e6
  8
Layer_0
  10
621.46155
  20
213
  0
VERTEX
  5
e7
  8
Layer_0
  10
628.84613
  20
213
  0
VERTEX
  5
e8
  8
Layer_0
  10
628.84613
  20
216.20001
  0
VERTEX
  5
e9
  8
Layer_0
  10
636.23077
  20
216.20001
  0
VERTEX
  5
ea
  8
Layer_0
  10
636.23077
  20
213
  0
VERTEX
  5
eb
  8
Layer_0
  10
643.61536
  20
213
  0
VERTEX
  5
ec
  8
Layer_0
  10
643.61536
  20
216.20001
  0
VERTEX
  5
ed
  8
Layer_0
  10
647.79999
  20
216.20001
  0
VERTEX
  5
ee
  8
Layer_0
  10
647.79999
  20
223.09229
  0
VERTEX
  5
ef
  8
Layer_0
  10
651
  20
223.09229
  0
VERTEX
  5
f0
  8
Layer_0
  10
651
  20
229.98462
  0
VERTEX
  5
f1
  8
Layer_0
  10
647.79999
  20
229.98462
  0
VERTEX
  5
f2
  8
Layer_0
  10
647.79999
  20
236.87695
  0
VERTEX
  5
f3
  8
Layer_0
  10
651
  20
236.87695
  0
VERTEX
  5
f4
  8
Layer_0
  10
651
  20
243.76923
  0
SEQEND
  0
POLYLINE
  5
f6
  8
Layer_0
  62
0
  66
1
  10
0
  20
0
  30
0
  0
VERTEX
  5
f6
  8
Layer_0
  10
643
  20
241
  0
VERTEX
  5
f7
  8
Layer_0
  10
643
  20
281
  42
0.41421356
  0
VERTEX
  5
f8
  8
Layer_0
  10
623
  20
301
  0
VERTEX
  5
f9
  8
Layer_0
  10
583
  20
301
  42
0.41421356
  0
VERTEX
  5
fa
  8
Layer_0
  10
563
  20
281
  0
VERTEX
  5
fb
  8
Layer_0
  10
563
  20
241
  42
0.41421356
  0
VERTEX
  5
fc
  8
Layer_0
  10
583
  20
221
  0
VERTEX
  5
fd
  8
Layer_0
  10
623
  20
221
  42
0.41421356
  0
VERTEX
  5
fe
  8
Layer_0
  10
643
  20
241
  0
SEQEND
  0
CIRCLE
  5
100
  8
Layer_0
  62
0
  10
567.99988
  20
368.2666
  30
0
  40
1.6
  0
CIRCLE
  5
100
  8
Layer_0
  62
0
  10
637.99988
  20
368.2666
  30
0
  40
1.6
  0
POLYLINE
  5
100
  8
Layer_0
  62
0
  66
1
  10
0
  20
0
  30
0
  0
VERTEX
  5
100
  8
Layer_0
  10
643.61536
  20
357.11664
  0
VERTEX
  5
101
  8
Layer_0
  10
643.61536
  20
353.91663
  0
VERTEX
  5
102
  8
Layer_0
  10
651
  20
353.91663
  0
VERTEX
  5
103
  8
Layer_0
  10
651
  20
357.95667
  0
VERTEX
  5
104
  8
Layer_0
  10
647.80005
  20
357.95667
  0
VERTEX
  5
105
  8
Layer_0
  10
647.80005
  20
361.99664
  0
VERTEX
  5
106
  8
Layer_0
  10
651
  20
361.99664
  0
VERTEX
  5
107
  8
Layer_0
  10
651
  20
366.03662
  0
VERTEX
  5
108
  8
Layer_0
  10
647.80005
  20
366.03662
  0
VERTEX
  5
109
  8
Layer_0
  10
647.80005
  20
370.07666
  0
VERTEX
  5
10a
  8
Layer_0
  10
651
  20
370.07666
  0
VERTEX
  5
10b
  8
Layer_0
  10
651
  20
374.11664
  0
VERTEX
  5
10c
  8
Layer_0
  10
555
  20
374.11664
  0
VERTEX
  5
10d
  8
Layer_0
  10
555
  20
370.07666
  0
VERTEX
  5
10e
  8
Layer_0
  10
558.19995
  20
370.07666
  0
VERTEX
  5
10f
  8
Layer_0
  10
558.19995
  20
366.03662
  0
VERTEX
  5
110
  8
Layer_0
  10
555
  20
366.03662
  0
VERTEX
  5
111
  8
Layer_0
  10
555
  20
361.99664
  0
VERTEX
  5
112
  8
Layer_0
  10
558.19995
  20
361.99664
  0
VERTEX
  5
113
  8
Layer_0
  10
558.19995
  20
357.95667
  0
VERTEX
  5
114
  8
Layer_0
  10
555
  20
357.95667
  0
VERTEX
  5
115
  8
Layer_0
  10
555
  20
353.91663
  0
VERTEX
  5
116
  8
Layer_0
  10
562.38464
  20
353.91663
  0
VERTEX
  5
117
  8
Layer_0
  10
562.38464
  20
357.11664
  0
VERTEX
  5
118
  8
Layer_0
  10
569.76929
  20
357.11664
  0
VERTEX
  5
119
  8
Layer_0
  10
569.76929
  20
353.91663
  0
VERTEX
  5
11a
  8
Layer_0
  10
577.15381
  20
353.91663
  0
VERTEX
  5
11b
  8
Layer_0
  10
577.15381
  20
357.11664
  0
VERTEX
  5
11c
  8
Layer_0
  10
584.53845
  20
357.11664
  0
VERTEX
  5
11d
  8
Layer_0
  10
584.53845
  20
353.91663
  0
VERTEX
  5
11e
  8
Layer_0
  10
591.9231
  20
353.91663
  0
VERTEX
  5
11f
  8
Layer_0
  10
591.9231
  20
357.11664
  0
VERTEX
  5
120
  8
Layer_0
  10
599.30774
  20
357.11664
  0
VERTEX
  5
121
  8
Layer_0
  10
599.30774
  20
353.91663
  0
VERTEX
  5
122
  8
Layer_0
  10
606.69226
  20
353.91663
  0
VERTEX
  5
123
  8
Layer_0
  10
606.69226
  20
357.11664
  0
VERTEX
  5
124
  8
Layer_0
  10
614.0769
  20
357.11664
  0
VERTEX
  5
125
  8
Layer_0
  10
614.0769
  20
353.91663
  0
VERTEX
  5
126
  8
Layer_0
  10
621.46155
  20
353.91663
  0
VERTEX
  5
127
  8
Layer_0
  10
621.46155
  20
357.11664
  0
VERTEX
  5
128
  8
Layer_0
  10
628.84619
  20
357.11664
  0
VERTEX
  5
129
  8
Layer_0
  10
628.84619
  20
353.91663
  0
VERTEX
  5
12a
  8
Layer_0
  10
636.23071
  20
353.91663
  0
VERTEX
  5
12b
  8
Layer_0
  10
636.23071
  20
357.11664
  0
VERTEX
  5
12c
  8
Layer_0
  10
643.61536
  20
357.11664
  0
SEQEND
  0
CIRCLE
  5
12e
  8
Layer_0
  62
0
  10
635.49994
  20
346.28333
  30
0
  40
1.6
  0
CIRCLE
  5
12e
  8
Layer_0
  62
0
  10
570.49994
  20
346.28333
  30
0
  40
1.6
  0
POLYLINE
  5
12e
  8
Layer_0
  62
0
  66
1
  10
0
  20
0
  30
0
  0
VERTEX
  5
12e
  8
Layer_0
  10
640.90771
  20
335.13336
  0
VERTEX
  5
12f
  8
Layer_0
  10
640.90771
  20
331.93335
  0
VERTEX
  5
130
  8
Layer_0
  10
647.80005
  20
331.93335
  0
VERTEX
  5
131
  8
Layer_0
  10
647.80005
  20
335.97339
  0
VERTEX
  5
132
  8
Layer_0
  10
651
  20
335.97339
  0
VERTEX
  5
133
  8
Layer_0
  10
651
  20
340.01337
  0
VERTEX
  5
134
  8
Layer_0
  10
647.80005
  20
340.01337
  0
VERTEX
  5
135
  8
Layer_0
  10
647.80005
  20
344.05334
  0
VERTEX
  5
136
  8
Layer_0
  10
651
  20
344.05334
  0
VERTEX
  5
137
  8
Layer_0
  10
651
  20
348.09338
  0
VERTEX
  5
138
  8
Layer_0
  10
647.80005
  20
348.09338
  0
VERTEX
  5
139
  8
Layer_0
  10
647.80005
  20
352.13336
  0
VERTEX
  5
13a
  8
Layer_0
  10
558.20001
  20
352.13342
  0
VERTEX
  5
13b
  8
Layer_0
  10
558.20001
  20
348.09338
  0
VERTEX
  5
13c
  8
Layer_0
  10
555
  20
348.09338
  0
VERTEX
  5
13d
  8
Layer_0
  10
555
  20
344.05341
  0
VERTEX
  5
13e
  8
Layer_0
  10
558.20001
  20
344.05341
  0
VERTEX
  5
13f
  8
Layer_0
  10
558.20001
  20
340.01343
  0
VERTEX
  5
140
  8
Layer_0
  10
555
  20
340.01343
  0
VERTEX
  5
141
  8
Layer_0
  10
555
  20
335.97339
  0
VERTEX
  5
142
  8
Layer_0
  10
558.20001
  20
335.97339
  0
VERTEX
  5
143
  8
Layer_0
  10
558.20001
  20
331.93335
  0
VERTEX
  5
144
  8
Layer_0
  10
565.09229
  20
331.93335
  0
VERTEX
  5
145
  8
Layer_0
  10
565.09229
  20
335.13342
  0
VERTEX
  5
146
  8
Layer_0
  10
571.98462
  20
335.13342
  0
VERTEX
  5
147
  8
Layer_0
  10
571.98462
  20
331.93335
  0
VERTEX
  5
148
  8
Layer_0
  10
578.87695
  20
331.93335
  0
VERTEX
  5
149
  8
Layer_0
  10
578.87695
  20
335.13342
  0
VERTEX
  5
14a
  8
Layer_0
  10
585.76929
  20
335.13342
  0
VERTEX
  5
14b
  8
Layer_0
  10
585.76929
  20
331.93335
  0
VERTEX
  5
14c
  8
Layer_0
  10
592.6615
  20
331.93335
  0
VERTEX
  5
14d
  8
Layer_0
  10
592.6615
  20
335.13336
  0
VERTEX
  5
14e
  8
Layer_0
  10
599.55383
  20
335.13336
  0
VERTEX
  5
14f
  8
Layer_0
  10
599.55383
  20
331.93335
  0
VERTEX
  5
150
  8
Layer_0
  10
606.44617
  20
331.93335
  0
VERTEX
  5
151
  8
Layer_0
  10
606.44617
  20
335.13336
  0
VERTEX
  5
152
  8
Layer_0
  10
613.3385
  20
335.13336
  0
VERTEX
  5
153
  8
Layer_0
  10
613.3385
  20
331.93335
  0
VERTEX
  5
154
  8
Layer_0
  10
620.23071
  20
331.93335
  0
VERTEX
  5
155
  8
Layer_0
  10
620.23071
  20
335.13336
  0
VERTEX
  5
156
  8
Layer_0
  10
627.12305
  20
335.13336
  0
VERTEX
  5
157
  8
Layer_0
  10
627.12305
  20
331.93335
  0
VERTEX
  5
158
  8
Layer_0
  10
634.01538
  20
331.93335
  0
VERTEX
  5
159
  8
Layer_0
  10
634.01538
  20
335.13336
  0
VERTEX
  5
15a
  8
Layer_0
  10
640.90771
  20
335.13336
  0
SEQEND
  0
CIRCLE
  5
15c
  8
Layer_0
  62
0
  10
570.5
  20
381.74988
  30
0
  40
1.6
  0
CIRCLE
  5
15c
  8
Layer_0
  62
0
  10
635.49994
  20
381.74988
  30
0
  40
1.6
  0
POLYLINE
  5
15c
  8
Layer_0
  62
0
  66
1
  10
0
  20
0
  30
0
  0
VERTEX
  5
15c
  8
Layer_0
  10
585.76923
  20
392.89993
  0
VERTEX
  5
15d
  8
Layer_0
  10
578.87695
  20
392.89993
  0
VERTEX
  5
15e
  8
Layer_0
  10
578.87695
  20
396.09995
  0
VERTEX
  5
15f
  8
Layer_0
  10
571.98462
  20
396.09995
  0
VERTEX
  5
160
  8
Layer_0
  10
571.98462
  20
392.89993
  0
VERTEX
  5
161
  8
Layer_0
  10
565.09229
  20
392.89993
  0
VERTEX
  5
162
  8
Layer_0
  10
565.09229
  20
396.09995
  0
VERTEX
  5
163
  8
Layer_0
  10
558.20001
  20
396.09995
  0
VERTEX
  5
164
  8
Layer_0
  10
558.20001
  20
392.05994
  0
VERTEX
  5
165
  8
Layer_0
  10
555
  20
392.05994
  0
VERTEX
  5
166
  8
Layer_0
  10
555
  20
388.01996
  0
VERTEX
  5
167
  8
Layer_0
  10
558.20001
  20
388.01996
  0
VERTEX
  5
168
  8
Layer_0
  10
558.20001
  20
383.97998
  0
VERTEX
  5
169
  8
Layer_0
  10
555
  20
383.97998
  0
VERTEX
  5
16a
  8
Layer_0
  10
555
  20
379.93994
  0
VERTEX
  5
16b
  8
Layer_0
  10
558.20001
  20
379.93994
  0
VERTEX
  5
16c
  8
Layer_0
  10
558.20001
  20
375.8999
  0
VERTEX
  5
16d
  8
Layer_0
  10
647.79999
  20
375.8999
  0
VERTEX
  5
16e
  8
Layer_0
  10
647.79999
  20
379.93994
  0
VERTEX
  5
16f
  8
Layer_0
  10
651
  20
379.93994
  0
VERTEX
  5
170
  8
Layer_0
  10
651
  20
383.97998
  0
VERTEX
  5
171
  8
Layer_0
  10
647.79999
  20
383.97998
  0
VERTEX
  5
172
  8
Layer_0
  10
647.79999
  20
388.01996
  0
VERTEX
  5
173
  8
Layer_0
  10
651
  20
388.01996
  0
VERTEX
  5
174
  8
Layer_0
  10
651
  20
392.05994
  0
VERTEX
  5
175
  8
Layer_0
  10
647.79999
  20
392.05994
  0
VERTEX
  5
176
  8
Layer_0
  10
647.79999
  20
396.09995
  0
VERTEX
  5
177
  8
Layer_0
  10
640.90771
  20
396.09995
  0
VERTEX
  5
178
  8
Layer_0
  10
640.90771
  20
392.89993
  0
VERTEX
  5
179
  8
Layer_0
  10
634.01538
  20
392.89993
  0
VERTEX
  5
17a
  8
Layer_0
  10
634.01538
  20
396.09995
  0
VERTEX
  5
17b
  8
Layer_0
  10
627.12305
  20
396.09995
  0
VERTEX
  5
17c
  8
Layer_0
  10
627.12305
  20
392.89993
  0
VERTEX
  5
17d
  8
Layer_0
  10
620.23077
  20
392.89993
  0
VERTEX
  5
17e
  8
Layer_0
  10
620.23077
  20
396.09995
  0
VERTEX
  5
17f
  8
Layer_0
  10
613.33844
  20
396.09995
  0
VERTEX
  5
180
  8
Layer_0
  10
613.33844
  20
392.89993
  0
VERTEX
  5
181
  8
Layer_0
  10
606.44617
  20
392.89993
  0
VERTEX
  5
182
  8
Layer_0
  10
606.44617
  20
396.09995
  0
VERTEX
  5
183
  8
Layer_0
  10
599.55383
  20
396.09995
  0
VERTEX
  5
184
  8
Layer_0
  10
599.55383
  20
392.89993
  0
VERTEX
  5
185
  8
Layer_0
  10
592.66156
  20
392.89993
  0
VERTEX
  5
186
  8
Layer_0
  10
592.66156
  20
396.09995
  0
VERTEX
  5
187
  8
Layer_0
  10
585.76923
  20
396.09995
  0
VERTEX
  5
188
  8
Layer_0
  10
585.76923
  20
392.89993
  0
SEQEND
  0
POLYLINE
  5
18a
  8
Layer_0
  62
0
  66
1
  10
0
  20
0
  30
0
  0
VERTEX
  5
18a
  8
Layer_0
  10
608.70001
  20
384.99994
  0
VERTEX
  5
18b
  8
Layer_0
  10
608.69995
  20
383.29993
  42
-0.41421356
  0
VERTEX
  5
18c
  8
Layer_0
  10
606.59998
  20
381.19995
  0
VERTEX
  5
18d
  8
Layer_0
  10
599.40002
  20
381.19995
  42
-0.41421356
  0
VERTEX
  5
18e
  8
Layer_0
  10
597.30005
  20
383.29993
  0
VERTEX
  5
18f
  8
Layer_0
  10
597.29999
  20
384.99994
  42
-0.41419815
  0
VERTEX
  5
190
  8
Layer_0
  10
599.40002
  20
387.09998
  0
VERTEX
  5
191
  8
Layer_0
  10
606.59998
  20
387.09998
  42
-0.41419815
  0
VERTEX
  5
192
  8
Layer_0
  10
608.70001
  20
384.99994
  0
SEQEND
  0
CIRCLE
  5
194
  8
Layer_0
  62
0
  10
637.99994
  20
315.79993
  30
0
  40
1.6
  0
CIRCLE
  5
194
  8
Layer_0
  62
0
  10
567.99988
  20
315.79993
  30
0
  40
1.6
  0
POLYLINE
  5
194
  8
Layer_0
  62
0
  66
1
  10
0
  20
0
  30
0
  0
VERTEX
  5
194
  8
Layer_0
  10
584.12061
  20
317.54993
  0
VERTEX
  5
195
  8
Layer_0
  10
584.12061
  20
314.04993
  0
VERTEX
  5
196
  8
Layer_0
  10
577.12061
  20
314.04993
  0
VERTEX
  5
197
  8
Layer_0
  10
577.12061
  20
317.54993
  0
VERTEX
  5
198
  8
Layer_0
  10
584.12061
  20
317.54993
  0
SEQEND
  0
POLYLINE
  5
19a
  8
Layer_0
  62
0
  66
1
  10
0
  20
0
  30
0
  0
VERTEX
  5
19a
  8
Layer_0
  10
562.38464
  20
326.94995
  0
VERTEX
  5
19b
  8
Layer_0
  10
562.38464
  20
330.14996
  0
VERTEX
  5
19c
  8
Layer_0
  10
555
  20
330.14996
  0
VERTEX
  5
19d
  8
Layer_0
  10
555
  20
326.10999
  0
VERTEX
  5
19e
  8
Layer_0
  10
558.19995
  20
326.10999
  0
VERTEX
  5
19f
  8
Layer_0
  10
558.19995
  20
322.06995
  0
VERTEX
  5
1a0
  8
Layer_0
  10
555
  20
322.06995
  0
VERTEX
  5
1a1
  8
Layer_0
  10
555
  20
318.02997
  0
VERTEX
  5
1a2
  8
Layer_0
  10
558.19995
  20
318.02997
  0
VERTEX
  5
1a3
  8
Layer_0
  10
558.19995
  20
313.98999
  0
VERTEX
  5
1a4
  8
Layer_0
  10
555
  20
313.98999
  0
VERTEX
  5
1a5
  8
Layer_0
  10
555
  20
309.94995
  0
VERTEX
  5
1a6
  8
Layer_0
  10
651
  20
309.94995
  0
VERTEX
  5
1a7
  8
Layer_0
  10
651
  20
313.98999
  0
VERTEX
  5
1a8
  8
Layer_0
  10
647.80005
  20
313.98999
  0
VERTEX
  5
1a9
  8
Layer_0
  10
647.80005
  20
318.02997
  0
VERTEX
  5
1aa
  8
Layer_0
  10
651
  20
318.02997
  0
VERTEX
  5
1ab
  8
Layer_0
  10
651
  20
322.06995
  0
VERTEX
  5
1ac
  8
Layer_0
  10
647.80005
  20
322.06995
  0
VERTEX
  5
1ad
  8
Layer_0
  10
647.80005
  20
326.10999
  0
VERTEX
  5
1ae
  8
Layer_0
  10
651
  20
326.10999
  0
VERTEX
  5
1af
  8
Layer_0
  10
651
  20
330.14996
  0
VERTEX
  5
1b0
  8
Layer_0
  10
643.61536
  20
330.14996
  0
VERTEX
  5
1b1
  8
Layer_0
  10
643.61536
  20
326.94995
  0
VERTEX
  5
1b2
  8
Layer_0
  10
636.23071
  20
326.94995
  0
VERTEX
  5
1b3
  8
Layer_0
  10
636.23071
  20
330.14996
  0
VERTEX
  5
1b4
  8
Layer_0
  10
628.84619
  20
330.14996
  0
VERTEX
  5
1b5
  8
Layer_0
  10
628.84619
  20
326.94995
  0
VERTEX
  5
1b6
  8
Layer_0
  10
621.46155
  20
326.94995
  0
VERTEX
  5
1b7
  8
Layer_0
  10
621.46155
  20
330.14996
  0
VERTEX
  5
1b8
  8
Layer_0
  10
614.0769
  20
330.14996
  0
VERTEX
  5
1b9
  8
Layer_0
  10
614.0769
  20
326.94995
  0
VERTEX
  5
1ba
  8
Layer_0
  10
606.69226
  20
326.94995
  0
VERTEX
  5
1bb
  8
Layer_0
  10
606.69226
  20
330.14996
  0
VERTEX
  5
1bc
  8
Layer_0
  10
599.30774
  20
330.14996
  0
VERTEX
  5
1bd
  8
Layer_0
  10
599.30774
  20
326.94995
  0
VERTEX
  5
1be
  8
Layer_0
  10
591.9231
  20
326.94995
  0
VERTEX
  5
1bf
  8
Layer_0
  10
591.9231
  20
330.14996
  0
VERTEX
  5
1c0
  8
Layer_0
  10
584.53845
  20
330.14996
  0
VERTEX
  5
1c1
  8
Layer_0
  10
584.53845
  20
326.94995
  0
VERTEX
  5
1c2
  8
Layer_0
  10
577.15381
  20
326.94995
  0
VERTEX
  5
1c3
  8
Layer_0
  10
577.15381
  20
330.14996
  0
VERTEX
  5
1c4
  8
Layer_0
  10
569.76929
  20
330.14996
  0
VERTEX
  5
1c5
  8
Layer_0
  10
569.76929
  20
326.94995
  0
VERTEX
  5
1c6
  8
Layer_0
  10
562.38464
  20
326.94995
  0
SEQEND
  0
ENDSEC
  0
EOF
