  0
SECTION
  2
HEADER
  9
$ACADVER
  1
AC1009
  0
ENDSEC
  0
SECTION
  2
ENTITIES
  0
CIRCLE
  5
90
  8
Layer_0
  62
0
  10
978
  20
458.48083
  30
0
  40
1.6
  0
CIRCLE
  5
90
  8
Layer_0
  62
0
  10
941.48083
  20
495
  30
0
  40
1.6
  0
CIRCLE
  5
90
  8
Layer_0
  62
0
  10
978
  20
531.51917
  30
0
  40
1.6
  0
CIRCLE
  5
90
  8
Layer_0
  62
0
  10
1014.5192
  20
495
  30
0
  40
1.6
  0
POLYLINE
  5
90
  8
Layer_0
  62
0
  66
1
  10
0
  20
0
  30
0
  0
VERTEX
  5
90
  8
Layer_0
  10
958
  20
455
  0
VERTEX
  5
91
  8
Layer_0
  10
998
  20
455
  42
0.41421356
  0
VERTEX
  5
92
  8
Layer_0
  10
1018
  20
475
  0
VERTEX
  5
93
  8
Layer_0
  10
1018
  20
515
  42
0.41421356
  0
VERTEX
  5
94
  8
Layer_0
  10
998
  20
535
  0
VERTEX
  5
95
  8
Layer_0
  10
958
  20
535
  42
0.41421356
  0
VERTEX
  5
96
  8
Layer_0
  10
938
  20
515
  0
VERTEX
  5
97
  8
Layer_0
  10
938
  20
475
  42
0.41421356
  0
VERTEX
  5
98
  8
Layer_0
  10
958
  20
455
  0
SEQEND
  0
CIRCLE
  5
9a
  8
Layer_0
  62
0
  10
941
  20
736.25012
  30
0
  40
1.6
  0
CIRCLE
  5
9a
  8
Layer_0
  62
0
  10
1011
  20
736.25012
  30
0
  40
1.6
  0
POLYLINE
  5
9a
  8
Layer_0
  62
0
  66
1
  10
0
  20
0
  30
0
  0
VERTEX
  5
9a
  8
Layer_0
  10
1016.6154
  20
725.10004
  0
VERTEX
  5
9b
  8
Layer_0
  10
1016.6154
  20
721.90002
  0
VERTEX
  5
9c
  8
Layer_0
  10
1024
  20
721.90002
  0
VERTEX
  5
9d
  8
Layer_0
  10
1024
  20
725.94003
  0
VERTEX
  5
9e
  8
Layer_0
  10
1020.8
  20
725.94003
  0
VERTEX
  5
9f
  8
Layer_0
  10
1020.8
  20
729.98004
  0
VERTEX
  5
a0
  8
Layer_0
  10
1024
  20
729.98004
  0
VERTEX
  5
a1
  8
Layer_0
  10
1024
  20
734.02005
  0
VERTEX
  5
a2
  8
Layer_0
  10
1020.8
  20
734.02005
  0
VERTEX
  5
a3
  8
Layer_0
  10
1020.8
  20
738.06003
  0
VERTEX
  5
a4
  8
Layer_0
  10
1024
  20
738.06003
  0
VERTEX
  5
a5
  8
Layer_0
  10
1024
  20
742.10004
  0
VERTEX
  5
a6
  8
Layer_0
  10
928
  20
742.10004
  0
VERTEX
  5
a7
  8
Layer_0
  10
928
  20
738.06003
  0
VERTEX
  5
a8
  8
Layer_0
  10
931.19995
  20
738.06003
  0
VERTEX
  5
a9
  8
Layer_0
  10
931.19995
  20
734.02005
  0
VERTEX
  5
aa
  8
Layer_0
  10
928
  20
734.02005
  0
VERTEX
  5
ab
  8
Layer_0
  10
928
  20
729.98004
  0
VERTEX
  5
ac
  8
Layer_0
  10
931.19995
  20
729.98004
  0
VERTEX
  5
ad
  8
Layer_0
  10
931.19995
  20
725.94003
  0
VERTEX
  5
ae
  8
Layer_0
  10
928
  20
725.94003
  0
VERTEX
  5
af
  8
Layer_0
  10
928
  20
721.90002
  0
VERTEX
  5
b0
  8
Layer_0
  10
935.38464
  20
721.90002
  0
VERTEX
  5
b1
  8
Layer_0
  10
935.38464
  20
725.10004
  0
VERTEX
  5
b2
  8
Layer_0
  10
942.76929
  20
725.10004
  0
VERTEX
  5
b3
  8
Layer_0
  10
942.76929
  20
721.90002
  0
VERTEX
  5
b4
  8
Layer_0
  10
950.15381
  20
721.90002
  0
VERTEX
  5
b5
  8
Layer_0
  10
950.15381
  20
725.10004
  0
VERTEX
  5
b6
  8
Layer_0
  10
957.53845
  20
725.10004
  0
VERTEX
  5
b7
  8
Layer_0
  10
957.53845
  20
721.90002
  0
VERTEX
  5
b8
  8
Layer_0
  10
964.9231
  20
721.90002
  0
VERTEX
  5
b9
  8
Layer_0
  10
964.9231
  20
725.10004
  0
VERTEX
  5
ba
  8
Layer_0
  10
972.30774
  20
725.10004
  0
VERTEX
  5
bb
  8
Layer_0
  10
972.30774
  20
721.90002
  0
VERTEX
  5
bc
  8
Layer_0
  10
979.69226
  20
721.90002
  0
VERTEX
  5
bd
  8
Layer_0
  10
979.69226
  20
725.10004
  0
VERTEX
  5
be
  8
Layer_0
  10
987.0769
  20
725.10004
  0
VERTEX
  5
bf
  8
Layer_0
  10
987.0769
  20
721.90002
  0
VERTEX
  5
c0
  8
Layer_0
  10
994.46155
  20
721.90002
  0
VERTEX
  5
c1
  8
Layer_0
  10
994.46155
  20
725.10004
  0
VERTEX
  5
c2
  8
Layer_0
  10
1001.8462
  20
725.10004
  0
VERTEX
  5
c3
  8
Layer_0
  10
1001.8462
  20
721.90002
  0
VERTEX
  5
c4
  8
Layer_0
  10
1009.2307
  20
721.90002
  0
VERTEX
  5
c5
  8
Layer_0
  10
1009.2307
  20
725.10004
  0
VERTEX
  5
c6
  8
Layer_0
  10
1016.6154
  20
725.10004
  0
SEQEND
  0
CIRCLE
  5
c8
  8
Layer_0
  62
0
  10
1008.5001
  20
693.25006
  30
0
  40
1.6
  0
CIRCLE
  5
c8
  8
Layer_0
  62
0
  10
943.50006
  20
693.25006
  30
0
  40
1.6
  0
POLYLINE
  5
c8
  8
Layer_0
  62
0
  66
1
  10
0
  20
0
  30
0
  0
VERTEX
  5
c8
  8
Layer_0
  10
1013.9077
  20
682.09998
  0
VERTEX
  5
c9
  8
Layer_0
  10
1013.9077
  20
678.89996
  0
VERTEX
  5
ca
  8
Layer_0
  10
1020.8
  20
678.89996
  0
VERTEX
  5
cb
  8
Layer_0
  10
1020.8
  20
682.93997
  0
VERTEX
  5
cc
  8
Layer_0
  10
1024
  20
682.93997
  0
VERTEX
  5
cd
  8
Layer_0
  10
1024
  20
686.97998
  0
VERTEX
  5
ce
  8
Layer_0
  10
1020.8
  20
686.97998
  0
VERTEX
  5
cf
  8
Layer_0
  10
1020.8
  20
691.01999
  0
VERTEX
  5
d0
  8
Layer_0
  10
1024
  20
691.01999
  0
VERTEX
  5
d1
  8
Layer_0
  10
1024
  20
695.05997
  0
VERTEX
  5
d2
  8
Layer_0
  10
1020.8
  20
695.05997
  0
VERTEX
  5
d3
  8
Layer_0
  10
1020.8
  20
699.09998
  0
VERTEX
  5
d4
  8
Layer_0
  10
931.20001
  20
699.10001
  0
VERTEX
  5
d5
  8
Layer_0
  10
931.20001
  20
695.06
  0
VERTEX
  5
d6
  8
Layer_0
  10
928
  20
695.06
  0
VERTEX
  5
d7
  8
Layer_0
  10
928
  20
691.02002
  0
VERTEX
  5
d8
  8
Layer_0
  10
931.20001
  20
691.02002
  0
VERTEX
  5
d9
  8
Layer_0
  10
931.20001
  20
686.98001
  0
VERTEX
  5
da
  8
Layer_0
  10
928
  20
686.98001
  0
VERTEX
  5
db
  8
Layer_0
  10
928
  20
682.94
  0
VERTEX
  5
dc
  8
Layer_0
  10
931.20001
  20
682.94
  0
VERTEX
  5
dd
  8
Layer_0
  10
931.20001
  20
678.89999
  0
VERTEX
  5
de
  8
Layer_0
  10
938.09229
  20
678.89999
  0
VERTEX
  5
df
  8
Layer_0
  10
938.09229
  20
682.10001
  0
VERTEX
  5
e0
  8
Layer_0
  10
944.98462
  20
682.10001
  0
VERTEX
  5
e1
  8
Layer_0
  10
944.98462
  20
678.89999
  0
VERTEX
  5
e2
  8
Layer_0
  10
951.87695
  20
678.89999
  0
VERTEX
  5
e3
  8
Layer_0
  10
951.87695
  20
682.10001
  0
VERTEX
  5
e4
  8
Layer_0
  10
958.76929
  20
682.10001
  0
VERTEX
  5
e5
  8
Layer_0
  10
958.76929
  20
678.89999
  0
VERTEX
  5
e6
  8
Layer_0
  10
965.6615
  20
678.89996
  0
VERTEX
  5
e7
  8
Layer_0
  10
965.6615
  20
682.09998
  0
VERTEX
  5
e8
  8
Layer_0
  10
972.55383
  20
682.09998
  0
VERTEX
  5
e9
  8
Layer_0
  10
972.55383
  20
678.89996
  0
VERTEX
  5
ea
  8
Layer_0
  10
979.44617
  20
678.89996
  0
VERTEX
  5
eb
  8
Layer_0
  10
979.44617
  20
682.09998
  0
VERTEX
  5
ec
  8
Layer_0
  10
986.3385
  20
682.09998
  0
VERTEX
  5
ed
  8
Layer_0
  10
986.3385
  20
678.89996
  0
VERTEX
  5
ee
  8
Layer_0
  10
993.23071
  20
678.89996
  0
VERTEX
  5
ef
  8
Layer_0
  10
993.23071
  20
682.09998
  0
VERTEX
  5
f0
  8
Layer_0
  10
1000.123
  20
682.09998
  0
VERTEX
  5
f1
  8
Layer_0
  10
1000.123
  20
678.89996
  0
VERTEX
  5
f2
  8
Layer_0
  10
1007.0154
  20
678.89996
  0
VERTEX
  5
f3
  8
Layer_0
  10
1007.0154
  20
682.09998
  0
VERTEX
  5
f4
  8
Layer_0
  10
1013.9077
  20
682.09998
  0
SEQEND
  0
CIRCLE
  5
f6
  8
Layer_0
  62
0
  10
943.50012
  20
705.75006
  30
0
  40
1.6
  0
CIRCLE
  5
f6
  8
Layer_0
  62
0
  10
1008.5001
  20
705.75006
  30
0
  40
1.6
  0
POLYLINE
  5
f6
  8
Layer_0
  62
0
  66
1
  10
0
  20
0
  30
0
  0
VERTEX
  5
f6
  8
Layer_0
  10
958.76923
  20
716.89999
  0
VERTEX
  5
f7
  8
Layer_0
  10
951.87695
  20
716.89999
  0
VERTEX
  5
f8
  8
Layer_0
  10
951.87695
  20
720.10001
  0
VERTEX
  5
f9
  8
Layer_0
  10
944.98462
  20
720.10001
  0
VERTEX
  5
fa
  8
Layer_0
  10
944.98462
  20
716.89999
  0
VERTEX
  5
fb
  8
Layer_0
  10
938.09229
  20
716.89999
  0
VERTEX
  5
fc
  8
Layer_0
  10
938.09229
  20
720.10001
  0
VERTEX
  5
fd
  8
Layer_0
  10
931.20001
  20
720.10001
  0
VERTEX
  5
fe
  8
Layer_0
  10
931.20001
  20
716.06
  0
VERTEX
  5
ff
  8
Layer_0
  10
928
  20
716.06
  0
VERTEX
  5
100
  8
Layer_0
  10
928
  20
712.02002
  0
VERTEX
  5
101
  8
Layer_0
  10
931.20001
  20
712.02002
  0
VERTEX
  5
102
  8
Layer_0
  10
931.20001
  20
707.98001
  0
VERTEX
  5
103
  8
Layer_0
  10
928
  20
707.98001
  0
VERTEX
  5
104
  8
Layer_0
  10
928
  20
703.94
  0
VERTEX
  5
105
  8
Layer_0
  10
931.20001
  20
703.94
  0
VERTEX
  5
106
  8
Layer_0
  10
931.20001
  20
699.89999
  0
VERTEX
  5
107
  8
Layer_0
  10
1020.8
  20
699.89999
  0
VERTEX
  5
108
  8
Layer_0
  10
1020.8
  20
703.94
  0
VERTEX
  5
109
  8
Layer_0
  10
1024
  20
703.94
  0
VERTEX
  5
10a
  8
Layer_0
  10
1024
  20
707.98001
  0
VERTEX
  5
10b
  8
Layer_0
  10
1020.8
  20
707.98001
  0
VERTEX
  5
10c
  8
Layer_0
  10
1020.8
  20
712.02002
  0
VERTEX
  5
10d
  8
Layer_0
  10
1024
  20
712.02002
  0
VERTEX
  5
10e
  8
Layer_0
  10
1024
  20
716.06
  0
VERTEX
  5
10f
  8
Layer_0
  10
1020.8
  20
716.06
  0
VERTEX
  5
110
  8
Layer_0
  10
1020.8
  20
720.10001
  0
VERTEX
  5
111
  8
Layer_0
  10
1013.9077
  20
720.10001
  0
VERTEX
  5
112
  8
Layer_0
  10
1013.9077
  20
716.89999
  0
VERTEX
  5
113
  8
Layer_0
  10
1007.0154
  20
716.89999
  0
VERTEX
  5
114
  8
Layer_0
  10
1007.0154
  20
720.10001
  0
VERTEX
  5
115
  8
Layer_0
  10
1000.123
  20
720.10001
  0
VERTEX
  5
116
  8
Layer_0
  10
1000.123
  20
716.89999
  0
VERTEX
  5
117
  8
Layer_0
  10
993.23077
  20
716.89999
  0
VERTEX
  5
118
  8
Layer_0
  10
993.23077
  20
720.10001
  0
VERTEX
  5
119
  8
Layer_0
  10
986.33844
  20
720.10001
  0
VERTEX
  5
11a
  8
Layer_0
  10
986.33844
  20
716.89999
  0
VERTEX
  5
11b
  8
Layer_0
  10
979.44617
  20
716.89999
  0
VERTEX
  5
11c
  8
Layer_0
  10
979.44617
  20
720.10001
  0
VERTEX
  5
11d
  8
Layer_0
  10
972.55383
  20
720.10001
  0
VERTEX
  5
11e
  8
Layer_0
  10
972.55383
  20
716.89999
  0
VERTEX
  5
11f
  8
Layer_0
  10
965.66156
  20
716.89999
  0
VERTEX
  5
120
  8
Layer_0
  10
965.66156
  20
720.10001
  0
VERTEX
  5
121
  8
Layer_0
  10
958.76923
  20
720.10001
  0
VERTEX
  5
122
  8
Layer_0
  10
958.76923
  20
716.89999
  0
SEQEND
  0
POLYLINE
  5
124
  8
Layer_0
  62
0
  66
1
  10
0
  20
0
  30
0
  0
VERTEX
  5
124
  8
Layer_0
  10
981.70001
  20
709
  0
VERTEX
  5
125
  8
Layer_0
  10
981.69995
  20
707.30002
  42
-0.41421356
  0
VERTEX
  5
126
  8
Layer_0
  10
979.59998
  20
705.20001
  0
VERTEX
  5
127
  8
Layer_0
  10
972.40002
  20
705.20001
  42
-0.41421356
  0
VERTEX
  5
128
  8
Layer_0
  10
970.30005
  20
707.30002
  0
VERTEX
  5
129
  8
Layer_0
  10
970.29999
  20
709
  42
-0.41419815
  0
VERTEX
  5
12a
  8
Layer_0
  10
972.40002
  20
711.10001
  0
VERTEX
  5
12b
  8
Layer_0
  10
979.59998
  20
711.10001
  42
-0.41419815
  0
VERTEX
  5
12c
  8
Layer_0
  10
981.70001
  20
709
  0
SEQEND
  0
CIRCLE
  5
12e
  8
Layer_0
  62
0
  10
1012.5192
  20
593.48083
  30
0
  40
1.6
  0
CIRCLE
  5
12e
  8
Layer_0
  62
0
  10
939.48083
  20
593.48083
  30
0
  40
1.6
  0
CIRCLE
  5
12e
  8
Layer_0
  62
0
  10
939.48083
  20
666.51917
  30
0
  40
1.6
  0
CIRCLE
  5
12e
  8
Layer_0
  62
0
  10
1012.5192
  20
666.51917
  30
0
  40
1.6
  0
POLYLINE
  5
12e
  8
Layer_0
  62
0
  66
1
  10
0
  20
0
  30
0
  0
VERTEX
  5
12e
  8
Layer_0
  10
1024
  20
612.76923
  0
VERTEX
  5
12f
  8
Layer_0
  10
1020.8
  20
612.76923
  0
VERTEX
  5
130
  8
Layer_0
  10
1020.8
  20
619.66156
  0
VERTEX
  5
131
  8
Layer_0
  10
1024
  20
619.66156
  0
VERTEX
  5
132
  8
Layer_0
  10
1024
  20
626.55383
  0
VERTEX
  5
133
  8
Layer_0
  10
1020.8
  20
626.55383
  0
VERTEX
  5
134
  8
Layer_0
  10
1020.8
  20
633.44617
  0
VERTEX
  5
135
  8
Layer_0
  10
1024
  20
633.44617
  0
VERTEX
  5
136
  8
Layer_0
  10
1024
  20
640.33844
  0
VERTEX
  5
137
  8
Layer_0
  10
1020.8
  20
640.33844
  0
VERTEX
  5
138
  8
Layer_0
  10
1020.8
  20
647.23077
  0
VERTEX
  5
139
  8
Layer_0
  10
1024
  20
647.23077
  0
VERTEX
  5
13a
  8
Layer_0
  10
1024
  20
654.12305
  0
VERTEX
  5
13b
  8
Layer_0
  10
1020.8
  20
654.12305
  0
VERTEX
  5
13c
  8
Layer_0
  10
1020.8
  20
661.01538
  0
VERTEX
  5
13d
  8
Layer_0
  10
1024
  20
661.01538
  0
VERTEX
  5
13e
  8
Layer_0
  10
1024
  20
667.90771
  0
VERTEX
  5
13f
  8
Layer_0
  10
1020.8
  20
667.90771
  0
VERTEX
  5
140
  8
Layer_0
  10
1020.8
  20
674.79999
  0
VERTEX
  5
141
  8
Layer_0
  10
1016.6154
  20
674.79999
  0
VERTEX
  5
142
  8
Layer_0
  10
1016.6154
  20
678
  0
VERTEX
  5
143
  8
Layer_0
  10
1009.2308
  20
678
  0
VERTEX
  5
144
  8
Layer_0
  10
1009.2308
  20
674.79999
  0
VERTEX
  5
145
  8
Layer_0
  10
1001.8461
  20
674.79999
  0
VERTEX
  5
146
  8
Layer_0
  10
1001.8461
  20
678
  0
VERTEX
  5
147
  8
Layer_0
  10
994.46155
  20
678
  0
VERTEX
  5
148
  8
Layer_0
  10
994.46155
  20
674.79999
  0
VERTEX
  5
149
  8
Layer_0
  10
987.0769
  20
674.79999
  0
VERTEX
  5
14a
  8
Layer_0
  10
987.0769
  20
678
  0
VERTEX
  5
14b
  8
Layer_0
  10
979.69232
  20
678
  0
VERTEX
  5
14c
  8
Layer_0
  10
979.69232
  20
674.79999
  0
VERTEX
  5
14d
  8
Layer_0
  10
972.30768
  20
674.79999
  0
VERTEX
  5
14e
  8
Layer_0
  10
972.30768
  20
678
  0
VERTEX
  5
14f
  8
Layer_0
  10
964.9231
  20
678
  0
VERTEX
  5
150
  8
Layer_0
  10
964.9231
  20
674.79999
  0
VERTEX
  5
151
  8
Layer_0
  10
957.53845
  20
674.79999
  0
VERTEX
  5
152
  8
Layer_0
  10
957.53845
  20
678
  0
VERTEX
  5
153
  8
Layer_0
  10
950.15381
  20
678
  0
VERTEX
  5
154
  8
Layer_0
  10
950.15381
  20
674.79999
  0
VERTEX
  5
155
  8
Layer_0
  10
942.76923
  20
674.79999
  0
VERTEX
  5
156
  8
Layer_0
  10
942.76923
  20
678
  0
VERTEX
  5
157
  8
Layer_0
  10
935.38464
  20
678
  0
VERTEX
  5
158
  8
Layer_0
  10
935.38464
  20
674.79999
  0
VERTEX
  5
159
  8
Layer_0
  10
931.20001
  20
674.79999
  0
VERTEX
  5
15a
  8
Layer_0
  10
931.20001
  20
667.90771
  0
VERTEX
  5
15b
  8
Layer_0
  10
928
  20
667.90771
  0
VERTEX
  5
15c
  8
Layer_0
  10
928
  20
661.01538
  0
VERTEX
  5
15d
  8
Layer_0
  10
931.20001
  20
661.01538
  0
VERTEX
  5
15e
  8
Layer_0
  10
931.20001
  20
654.12305
  0
VERTEX
  5
15f
  8
Layer_0
  10
928
  20
654.12305
  0
VERTEX
  5
160
  8
Layer_0
  10
928
  20
647.23077
  0
VERTEX
  5
161
  8
Layer_0
  10
931.20001
  20
647.23077
  0
VERTEX
  5
162
  8
Layer_0
  10
931.20001
  20
640.33844
  0
VERTEX
  5
163
  8
Layer_0
  10
928
  20
640.33844
  0
VERTEX
  5
164
  8
Layer_0
  10
928
  20
633.44617
  0
VERTEX
  5
165
  8
Layer_0
  10
931.20001
  20
633.44617
  0
VERTEX
  5
166
  8
Layer_0
  10
931.20001
  20
626.55383
  0
VERTEX
  5
167
  8
Layer_0
  10
928
  20
626.55383
  0
VERTEX
  5
168
  8
Layer_0
  10
928
  20
619.66156
  0
VERTEX
  5
169
  8
Layer_0
  10
931.20001
  20
619.66156
  0
VERTEX
  5
16a
  8
Layer_0
  10
931.20001
  20
612.76923
  0
VERTEX
  5
16b
  8
Layer_0
  10
928
  20
612.76923
  0
VERTEX
  5
16c
  8
Layer_0
  10
928
  20
605.87695
  0
VERTEX
  5
16d
  8
Layer_0
  10
931.20001
  20
605.87695
  0
VERTEX
  5
16e
  8
Layer_0
  10
931.20001
  20
598.98462
  0
VERTEX
  5
16f
  8
Layer_0
  10
928
  20
598.98462
  0
VERTEX
  5
170
  8
Layer_0
  10
928
  20
592.09229
  0
VERTEX
  5
171
  8
Layer_0
  10
931.20001
  20
592.09229
  0
VERTEX
  5
172
  8
Layer_0
  10
931.20001
  20
585.20001
  0
VERTEX
  5
173
  8
Layer_0
  10
935.38464
  20
585.20001
  0
VERTEX
  5
174
  8
Layer_0
  10
935.38464
  20
582
  0
VERTEX
  5
175
  8
Layer_0
  10
942.76923
  20
582
  0
VERTEX
  5
176
  8
Layer_0
  10
942.76923
  20
585.20001
  0
VERTEX
  5
177
  8
Layer_0
  10
950.15381
  20
585.20001
  0
VERTEX
  5
178
  8
Layer_0
  10
950.15381
  20
582
  0
VERTEX
  5
179
  8
Layer_0
  10
957.53845
  20
582
  0
VERTEX
  5
17a
  8
Layer_0
  10
957.53845
  20
585.20001
  0
VERTEX
  5
17b
  8
Layer_0
  10
964.9231
  20
585.20001
  0
VERTEX
  5
17c
  8
Layer_0
  10
964.9231
  20
582
  0
VERTEX
  5
17d
  8
Layer_0
  10
972.30768
  20
582
  0
VERTEX
  5
17e
  8
Layer_0
  10
972.30768
  20
585.20001
  0
VERTEX
  5
17f
  8
Layer_0
  10
979.69232
  20
585.20001
  0
VERTEX
  5
180
  8
Layer_0
  10
979.69232
  20
582
  0
VERTEX
  5
181
  8
Layer_0
  10
987.0769
  20
582
  0
VERTEX
  5
182
  8
Layer_0
  10
987.0769
  20
585.20001
  0
VERTEX
  5
183
  8
Layer_0
  10
994.46155
  20
585.20001
  0
VERTEX
  5
184
  8
Layer_0
  10
994.46155
  20
582
  0
VERTEX
  5
185
  8
Layer_0
  10
1001.8461
  20
582
  0
VERTEX
  5
186
  8
Layer_0
  10
1001.8461
  20
585.20001
  0
VERTEX
  5
187
  8
Layer_0
  10
1009.2308
  20
585.20001
  0
VERTEX
  5
188
  8
Layer_0
  10
1009.2308
  20
582
  0
VERTEX
  5
189
  8
Layer_0
  10
1016.6154
  20
582
  0
VERTEX
  5
18a
  8
Layer_0
  10
1016.6154
  20
585.20001
  0
VERTEX
  5
18b
  8
Layer_0
  10
1020.8
  20
585.20001
  0
VERTEX
  5
18c
  8
Layer_0
  10
1020.8
  20
592.09229
  0
VERTEX
  5
18d
  8
Layer_0
  10
1024
  20
592.09229
  0
VERTEX
  5
18e
  8
Layer_0
  10
1024
  20
598.98462
  0
VERTEX
  5
18f
  8
Layer_0
  10
1020.8
  20
598.98462
  0
VERTEX
  5
190
  8
Layer_0
  10
1020.8
  20
605.87695
  0
VERTEX
  5
191
  8
Layer_0
  10
1024
  20
605.87695
  0
VERTEX
  5
192
  8
Layer_0
  10
1024
  20
612.76923
  0
SEQEND
  0
POLYLINE
  5
194
  8
Layer_0
  62
0
  66
1
  10
0
  20
0
  30
0
  0
VERTEX
  5
194
  8
Layer_0
  10
1016
  20
610
  0
VERTEX
  5
195
  8
Layer_0
  10
1016
  20
650
  42
0.41421356
  0
VERTEX
  5
196
  8
Layer_0
  10
996
  20
670
  0
VERTEX
  5
197
  8
Layer_0
  10
956
  20
670
  42
0.41421356
  0
VERTEX
  5
198
  8
Layer_0
  10
936
  20
650
  0
VERTEX
  5
199
  8
Layer_0
  10
936
  20
610
  42
0.41421356
  0
VERTEX
  5
19a
  8
Layer_0
  10
956
  20
590
  0
VERTEX
  5
19b
  8
Layer_0
  10
996
  20
590
  42
0.41421356
  0
VERTEX
  5
19c
  8
Layer_0
  10
1016
  20
610
  0
SEQEND
  0
CIRCLE
  5
19e
  8
Layer_0
  62
0
  10
1011
  20
748.75012
  30
0
  40
1.6
  0
CIRCLE
  5
19e
  8
Layer_0
  62
0
  10
941
  20
748.75012
  30
0
  40
1.6
  0
POLYLINE
  5
19e
  8
Layer_0
  62
0
  66
1
  10
0
  20
0
  30
0
  0
VERTEX
  5
19e
  8
Layer_0
  10
957.12061
  20
750.50003
  0
VERTEX
  5
19f
  8
Layer_0
  10
957.12061
  20
747.00003
  0
VERTEX
  5
1a0
  8
Layer_0
  10
950.12061
  20
747.00003
  0
VERTEX
  5
1a1
  8
Layer_0
  10
950.12061
  20
750.50003
  0
VERTEX
  5
1a2
  8
Layer_0
  10
957.12061
  20
750.50003
  0
SEQEND
  0
POLYLINE
  5
1a4
  8
Layer_0
  62
0
  66
1
  10
0
  20
0
  30
0
  0
VERTEX
  5
1a4
  8
Layer_0
  10
935.38464
  20
759.90002
  0
VERTEX
  5
1a5
  8
Layer_0
  10
935.38464
  20
763.10004
  0
VERTEX
  5
1a6
  8
Layer_0
  10
928
  20
763.10004
  0
VERTEX
  5
1a7
  8
Layer_0
  10
928
  20
759.06003
  0
VERTEX
  5
1a8
  8
Layer_0
  10
931.19995
  20
759.06003
  0
VERTEX
  5
1a9
  8
Layer_0
  10
931.19995
  20
755.02005
  0
VERTEX
  5
1aa
  8
Layer_0
  10
928
  20
755.02005
  0
VERTEX
  5
1ab
  8
Layer_0
  10
928
  20
750.98004
  0
VERTEX
  5
1ac
  8
Layer_0
  10
931.19995
  20
750.98004
  0
VERTEX
  5
1ad
  8
Layer_0
  10
931.19995
  20
746.94003
  0
VERTEX
  5
1ae
  8
Layer_0
  10
928
  20
746.94003
  0
VERTEX
  5
1af
  8
Layer_0
  10
928
  20
742.90002
  0
VERTEX
  5
1b0
  8
Layer_0
  10
1024
  20
742.90002
  0
VERTEX
  5
1b1
  8
Layer_0
  10
1024
  20
746.94003
  0
VERTEX
  5
1b2
  8
Layer_0
  10
1020.8
  20
746.94003
  0
VERTEX
  5
1b3
  8
Layer_0
  10
1020.8
  20
750.98004
  0
VERTEX
  5
1b4
  8
Layer_0
  10
1024
  20
750.98004
  0
VERTEX
  5
1b5
  8
Layer_0
  10
1024
  20
755.02005
  0
VERTEX
  5
1b6
  8
Layer_0
  10
1020.8
  20
755.02005
  0
VERTEX
  5
1b7
  8
Layer_0
  10
1020.8
  20
759.06003
  0
VERTEX
  5
1b8
  8
Layer_0
  10
1024
  20
759.06003
  0
VERTEX
  5
1b9
  8
Layer_0
  10
1024
  20
763.10004
  0
VERTEX
  5
1ba
  8
Layer_0
  10
1016.6154
  20
763.10004
  0
VERTEX
  5
1bb
  8
Layer_0
  10
1016.6154
  20
759.90002
  0
VERTEX
  5
1bc
  8
Layer_0
  10
1009.2307
  20
759.90002
  0
VERTEX
  5
1bd
  8
Layer_0
  10
1009.2307
  20
763.10004
  0
VERTEX
  5
1be
  8
Layer_0
  10
1001.8462
  20
763.10004
  0
VERTEX
  5
1bf
  8
Layer_0
  10
1001.8462
  20
759.90002
  0
VERTEX
  5
1c0
  8
Layer_0
  10
994.46155
  20
759.90002
  0
VERTEX
  5
1c1
  8
Layer_0
  10
994.46155
  20
763.10004
  0
VERTEX
  5
1c2
  8
Layer_0
  10
987.0769
  20
763.10004
  0
VERTEX
  5
1c3
  8
Layer_0
  10
987.0769
  20
759.90002
  0
VERTEX
  5
1c4
  8
Layer_0
  10
979.69226
  20
759.90002
  0
VERTEX
  5
1c5
  8
Layer_0
  10
979.69226
  20
763.10004
  0
VERTEX
  5
1c6
  8
Layer_0
  10
972.30774
  20
763.10004
  0
VERTEX
  5
1c7
  8
Layer_0
  10
972.30774
  20
759.90002
  0
VERTEX
  5
1c8
  8
Layer_0
  10
964.9231
  20
759.90002
  0
VERTEX
  5
1c9
  8
Layer_0
  10
964.9231
  20
763.10004
  0
VERTEX
  5
1ca
  8
Layer_0
  10
957.53845
  20
763.10004
  0
VERTEX
  5
1cb
  8
Layer_0
  10
957.53845
  20
759.90002
  0
VERTEX
  5
1cc
  8
Layer_0
  10
950.15381
  20
759.90002
  0
VERTEX
  5
1cd
  8
Layer_0
  10
950.15381
  20
763.10004
  0
VERTEX
  5
1ce
  8
Layer_0
  10
942.76929
  20
763.10004
  0
VERTEX
  5
1cf
  8
Layer_0
  10
942.76929
  20
759.90002
  0
VERTEX
  5
1d0
  8
Layer_0
  10
935.38464
  20
759.90002
  0
SEQEND
  0
ENDSEC
  0
EOF
